<svg width="28" height="28" viewBox="0 0 28 28" fill="none" xmlns="http://www.w3.org/2000/svg">
<g clip-path="url(#clip0_28_83)">
<path d="M23.6463 21.982C12.6516 27.2145 5.82814 22.8366 1.46023 20.1776C1.18995 20.01 0.730562 20.2167 1.12914 20.6746C2.58431 22.439 7.3532 26.6917 13.578 26.6917C19.807 26.6917 23.5128 23.2929 23.9763 22.7C24.4368 22.1121 24.1115 21.7878 23.6462 21.982H23.6463ZM26.7341 20.2767C26.4389 19.8922 24.9388 19.8206 23.9947 19.9365C23.0492 20.0492 21.63 20.627 21.7534 20.974C21.8167 21.104 21.9459 21.0457 22.5955 20.9873C23.2468 20.9223 25.0714 20.692 25.4516 21.189C25.8335 21.6895 24.8696 24.0734 24.6936 24.4579C24.5235 24.8424 24.7586 24.9415 25.0781 24.6855C25.3932 24.4295 25.9636 23.7666 26.3464 22.8285C26.7266 21.8852 26.9586 20.5695 26.7341 20.2767Z" fill="#FF9900"/>
<path fill-rule="evenodd" clip-rule="evenodd" d="M16.2532 11.3051C16.2532 12.6781 16.2879 13.823 15.5939 15.0423C15.0338 16.0337 14.1466 16.6433 13.1553 16.6433C11.8021 16.6433 11.014 15.6123 11.014 14.0907C11.014 11.087 13.7054 10.5418 16.2532 10.5418V11.3051ZM19.807 19.8949C19.574 20.103 19.237 20.1179 18.9743 19.9791C17.8046 19.0076 17.5963 18.5566 16.952 17.6297C15.019 19.6024 13.651 20.1922 11.143 20.1922C8.17893 20.1922 5.86914 18.3632 5.86914 14.7003C5.86914 11.8405 7.42064 9.89249 9.62616 8.9409C11.5395 8.09818 14.2111 7.94951 16.2532 7.71663V7.26059C16.2532 6.42288 16.3175 5.4316 15.8269 4.70799C15.3956 4.05866 14.5729 3.79099 13.8492 3.79099C12.506 3.79099 11.3065 4.47991 11.014 5.90739C10.9545 6.22469 10.7216 6.53697 10.4044 6.55181L6.98434 6.18509C6.69692 6.12053 6.37972 5.88764 6.45902 5.44644C7.2471 1.30285 10.9892 0.0537109 14.3398 0.0537109C16.0548 0.0537109 18.2951 0.509756 19.6483 1.80841C21.3633 3.40933 21.1997 5.54558 21.1997 7.87021V13.3621C21.1997 15.0126 21.8837 15.7362 22.528 16.6285C22.756 16.9457 22.8056 17.3274 22.5181 17.5652C21.7994 18.1649 20.5206 19.2802 19.8168 19.9048L19.8069 19.8949" fill="black"/>
<path d="M23.6463 21.982C12.6516 27.2145 5.82814 22.8366 1.46023 20.1776C1.18995 20.01 0.730562 20.2167 1.12914 20.6746C2.58431 22.439 7.3532 26.6917 13.578 26.6917C19.807 26.6917 23.5128 23.2929 23.9763 22.7C24.4368 22.1121 24.1115 21.7878 23.6462 21.982H23.6463ZM26.7341 20.2767C26.4389 19.8922 24.9388 19.8206 23.9947 19.9365C23.0492 20.0492 21.63 20.627 21.7534 20.974C21.8167 21.104 21.9459 21.0457 22.5955 20.9873C23.2468 20.9223 25.0714 20.692 25.4516 21.189C25.8335 21.6895 24.8696 24.0734 24.6936 24.4579C24.5235 24.8424 24.7586 24.9415 25.0781 24.6855C25.3932 24.4295 25.9636 23.7666 26.3464 22.8285C26.7266 21.8852 26.9586 20.5695 26.7341 20.2767Z" fill="#FF9900"/>
<path fill-rule="evenodd" clip-rule="evenodd" d="M16.2532 11.3051C16.2532 12.6781 16.2879 13.823 15.5939 15.0423C15.0338 16.0337 14.1466 16.6433 13.1553 16.6433C11.8021 16.6433 11.014 15.6123 11.014 14.0907C11.014 11.087 13.7054 10.5418 16.2532 10.5418V11.3051ZM19.807 19.8949C19.574 20.103 19.237 20.1179 18.9743 19.9791C17.8046 19.0076 17.5963 18.5566 16.952 17.6297C15.019 19.6024 13.651 20.1922 11.143 20.1922C8.17893 20.1922 5.86914 18.3632 5.86914 14.7003C5.86914 11.8405 7.42064 9.89249 9.62616 8.9409C11.5395 8.09818 14.2111 7.94951 16.2532 7.71663V7.26059C16.2532 6.42288 16.3175 5.4316 15.8269 4.70799C15.3956 4.05866 14.5729 3.79099 13.8492 3.79099C12.506 3.79099 11.3065 4.47991 11.014 5.90739C10.9545 6.22469 10.7216 6.53697 10.4044 6.55181L6.98434 6.18509C6.69692 6.12053 6.37972 5.88764 6.45902 5.44644C7.2471 1.30285 10.9892 0.0537109 14.3398 0.0537109C16.0548 0.0537109 18.2951 0.509756 19.6483 1.80841C21.3633 3.40933 21.1997 5.54558 21.1997 7.87021V13.3621C21.1997 15.0126 21.8837 15.7362 22.528 16.6285C22.756 16.9457 22.8056 17.3274 22.5181 17.5652C21.7994 18.1649 20.5206 19.2802 19.8168 19.9048L19.8069 19.8949" fill="black"/>
</g>
<defs>
<clipPath id="clip0_28_83">
<rect width="27.161" height="27.161" fill="white" transform="translate(0.26416 0.0537109)"/>
</clipPath>
</defs>
</svg>
