<svg width="27" height="31" viewBox="0 0 27 31" fill="none" xmlns="http://www.w3.org/2000/svg">
<path d="M21.8797 16.4848C21.8953 15.2977 22.2183 14.1338 22.8185 13.1013C23.4187 12.0688 24.2767 11.2013 25.3126 10.5796C24.6545 9.66202 23.7864 8.90689 22.7771 8.37419C21.7678 7.84149 20.6452 7.54589 19.4984 7.51086C17.0522 7.26016 14.6807 8.93997 13.4341 8.93997C12.1634 8.93997 10.2441 7.53575 8.17732 7.57726C6.84048 7.61943 5.53763 7.99896 4.39571 8.67887C3.25378 9.35878 2.31173 10.3159 1.66133 11.4569C-1.15598 16.2192 0.945485 23.2181 3.64428 27.0675C4.99456 28.9525 6.57263 31.058 8.63753 30.9834C10.6582 30.9015 11.4128 29.7254 13.8519 29.7254C16.2683 29.7254 16.9763 30.9834 19.0831 30.9359C21.2513 30.9015 22.6174 29.0426 23.9203 27.1397C24.8905 25.7966 25.637 24.3122 26.1323 22.7415C24.8726 22.2213 23.7977 21.3507 23.0414 20.238C22.2852 19.1254 21.8811 17.8201 21.8797 16.4848Z" fill="white"/>
<path d="M17.9003 4.97963C19.0826 3.59408 19.665 1.81318 19.524 0.0151367C17.7178 0.20034 16.0494 1.0431 14.8513 2.37549C14.2654 3.0264 13.8168 3.78365 13.5309 4.60395C13.245 5.42426 13.1275 6.29153 13.1852 7.15618C14.0885 7.16526 14.9823 6.97409 15.799 6.59708C16.6158 6.22006 17.3343 5.66703 17.9003 4.97963Z" fill="white"/>
</svg>
