<svg width="23" height="28" viewBox="0 0 23 28" fill="none" xmlns="http://www.w3.org/2000/svg">
<path d="M22.0682 9.56905C20.2138 10.6874 19.0685 12.6047 19.0685 14.735C19.0685 17.1315 20.5411 19.3151 22.7772 20.2204C22.3409 21.6051 21.6864 22.8833 20.8683 24.0549C19.6684 25.7059 18.414 27.4101 16.5596 27.4101C14.7053 27.4101 14.1599 26.345 11.9783 26.345C9.85121 26.345 9.08764 27.4633 7.34236 27.4633C5.59708 27.4633 4.39719 25.9189 3.03369 24.0017C1.23387 21.3388 0.197607 18.2499 0.143066 15.0012C0.143066 9.72882 3.63363 6.90621 7.1242 6.90621C8.97856 6.90621 10.5057 8.07786 11.651 8.07786C12.7418 8.07786 14.4871 6.85296 16.5596 6.85296C18.7412 6.7997 20.8138 7.81158 22.0682 9.56905ZM15.5779 4.61617C16.5051 3.55103 16.996 2.21961 17.0505 0.834936C17.0505 0.675166 17.0505 0.462139 16.996 0.302368C15.4143 0.462139 13.9417 1.20773 12.9055 2.37938C11.9783 3.39126 11.4329 4.66943 11.3783 6.0541C11.3783 6.21387 11.3783 6.37364 11.4329 6.53342C11.5419 6.53342 11.7056 6.58667 11.8146 6.58667C13.2872 6.48016 14.6507 5.73456 15.5779 4.61617Z" fill="black"/>
</svg>
