<svg width="42" height="25" viewBox="0 0 42 25" fill="none" xmlns="http://www.w3.org/2000/svg">
<path d="M33.6254 17.8123H41.7964V24.3929H33.577L31.5464 22.4574V19.7477L33.6254 17.8123Z" fill="#FFF000"/>
<path d="M8.14544 5.5702L8.29049 5.52181C8.38719 5.47343 8.53224 5.37665 8.67728 5.27988C8.82233 5.18311 8.96738 5.03794 9.11242 4.89278C9.25747 4.74762 9.35417 4.55407 9.49922 4.26375C9.59591 4.02182 9.64426 3.73149 9.64426 3.44117C9.64426 2.71536 9.30582 2.03794 8.62893 1.50569C7.95205 0.973428 7.03341 0.683105 5.87304 0.683105H0.796387V11.0379H6.16313C7.51691 11.0379 10.3695 10.796 10.3695 8.08633C10.3695 6.00569 8.19379 5.5702 8.14544 5.5702ZM4.13247 3.10246H5.38955C5.63129 3.10246 5.82469 3.15085 6.01809 3.3444C6.16313 3.48956 6.25983 3.68311 6.25983 3.87665C6.25983 4.0702 6.16313 4.26375 6.01809 4.40891C5.82469 4.55407 5.63129 4.65085 5.38955 4.65085H4.13247V3.10246ZM6.45323 8.37665C6.25983 8.5702 6.01808 8.66698 5.72799 8.66698H4.13247V6.82827H5.72799C6.01808 6.82827 6.25983 6.92504 6.45323 7.11859C6.64662 7.31214 6.74332 7.50569 6.74332 7.79601C6.74332 7.98956 6.64662 8.1831 6.45323 8.37665Z" fill="#122028"/>
<path d="M10.8046 17.038L10.9497 16.9896C11.0464 16.9412 11.1914 16.8444 11.3365 16.7477C11.4815 16.6509 11.6266 16.5057 11.7716 16.3606C11.9167 16.2154 12.0133 16.0218 12.1584 15.7315C12.2551 15.4896 12.3034 15.1993 12.3034 14.9089C12.3034 14.1831 11.965 13.5057 11.2881 12.9735C10.6112 12.4412 9.69259 12.1509 8.53222 12.1509H3.45557V22.5057H8.77396C10.1277 22.5057 12.9803 22.2638 12.9803 19.5541C13.0287 17.4735 10.853 17.0864 10.8046 17.038ZM6.84 14.5702H8.04873C8.29047 14.5702 8.48387 14.667 8.67726 14.8122C8.82231 14.9573 8.91901 15.1509 8.91901 15.3444C8.91901 15.538 8.82231 15.7315 8.67726 15.8767C8.53222 16.0218 8.33882 16.1186 8.04873 16.1186H6.84V14.5702ZM9.11241 19.8444C8.91901 20.038 8.67726 20.1347 8.38717 20.1347H6.84V18.296H8.38717C8.67726 18.296 8.91901 18.3928 9.11241 18.5864C9.3058 18.7799 9.4025 18.9735 9.4025 19.2638C9.4025 19.4573 9.3058 19.6509 9.11241 19.8444Z" fill="#122028"/>
<path d="M18.9274 8.52181H13.9474V6.92504H18.0087V4.55407H13.9474V3.19923H18.9274V0.683105H10.563V11.0379H18.9274V8.52181Z" fill="#122028"/>
<path d="M27.4851 0.683105V3.19923H30.241V11.0379H33.5771V3.19923H36.2846V0.683105H27.4851Z" fill="#122028"/>
<path d="M23.7138 8.37669C23.5204 8.52185 23.2786 8.61863 22.9402 8.61863C22.6018 8.61863 22.2633 8.52185 21.9249 8.32831C21.5864 8.13476 21.3447 7.9896 21.1996 7.89282C21.1513 7.84444 21.0546 7.79605 21.0062 7.74766L19.0239 9.63476L19.169 9.77992C19.2657 9.92508 19.4591 10.0702 19.7008 10.2154C19.9426 10.409 20.2327 10.5541 20.5711 10.7477C20.9095 10.9412 21.2963 11.0864 21.8282 11.1831C22.3117 11.3283 22.8435 11.3767 23.3753 11.3767C24.6808 11.3767 25.7444 11.038 26.518 10.3606C27.2916 9.68315 27.6784 8.86056 27.6784 7.89282C27.6784 7.36056 27.5817 6.82831 27.34 6.44121C27.0982 6.00573 26.8565 5.7154 26.518 5.47347C26.1796 5.27992 25.8411 5.08637 25.4543 4.89282C25.1159 4.74766 24.7775 4.6025 24.439 4.55411C24.3907 4.55411 24.3907 4.55411 24.3423 4.55411C24.0039 4.45734 23.7138 4.36056 23.5204 4.2154C23.2786 4.07024 23.1819 3.97347 23.1819 3.77992C23.1819 3.58637 23.2786 3.44121 23.4237 3.29605C23.5687 3.15089 23.8105 3.1025 24.1006 3.1025C24.7775 3.1025 25.2126 3.39282 25.406 3.63476L27.3883 1.74766L27.34 1.69927C27.2433 1.6025 27.0982 1.45734 26.9048 1.31218C26.7114 1.16702 26.4697 1.02185 26.1796 0.876693C25.8895 0.731532 25.551 0.586371 25.0676 0.489596C24.5841 0.441209 24.1006 0.392822 23.6171 0.392822C22.36 0.392822 21.393 0.731532 20.6194 1.36056C19.8459 2.03798 19.4591 2.81218 19.4591 3.68315C19.4591 4.16702 19.5558 4.6025 19.7008 4.94121C19.8459 5.32831 20.0876 5.61863 20.3294 5.86056C20.5711 6.1025 20.8612 6.29605 21.1996 6.44121C21.4897 6.58637 21.7315 6.68315 22.0216 6.77992C22.0699 6.77992 22.1183 6.82831 22.1666 6.82831C22.5051 6.92508 22.7952 7.02185 23.0369 7.11863C23.2786 7.2154 23.5204 7.31218 23.6654 7.40895C23.8105 7.50573 23.9072 7.65089 23.9072 7.74766C24.0039 8.03798 23.9072 8.23153 23.7138 8.37669Z" fill="#122028"/>
<path d="M18.9274 18.296C18.9274 18.9735 18.3955 19.5541 17.6703 19.5541C16.9934 19.5541 16.4132 19.0218 16.4132 18.296V12.1509H13.0771V18.1509C13.0771 20.6186 15.0595 22.6509 17.5736 22.6509H17.767C20.2328 22.6509 22.2635 20.667 22.2635 18.1509V12.1509H18.9274V18.296Z" fill="#122028"/>
<path d="M27.9686 15.6831L25.7929 12.1509H22.4568L26.3247 18.8283V22.5057H29.6608V18.8283L33.5287 12.1509H30.1926L27.9686 15.6831Z" fill="#122028"/>
<path d="M33.1903 21.1024C33.1903 21.3444 32.9969 21.4895 32.8035 21.4895C32.6101 21.4895 32.4167 21.296 32.4167 21.1024C32.4167 20.8605 32.6101 20.7153 32.8035 20.7153C32.9969 20.7153 33.1903 20.8605 33.1903 21.1024Z" fill="#122028"/>
<path d="M33.6253 15.151H33.3835V15.0542H33.9637V15.151H33.722V15.8768H33.6253V15.151ZM34.1088 15.0542H34.2538L34.4956 15.6832L34.7373 15.0542H34.8824V15.8284H34.7857V15.151L34.4956 15.8284H34.4472L34.1571 15.151V15.8284H34.0604V15.0542H34.1088Z" fill="#122028"/>
</svg>
