<svg width="57" height="25" viewBox="0 0 57 25" fill="none" xmlns="http://www.w3.org/2000/svg">
<path d="M23.2865 5.87319C23.2865 5.87319 23.5075 5.54443 23.6918 5.28872C24.0234 4.85036 24.6129 4.22936 25.0919 3.82753C25.2393 3.71794 25.3866 3.57183 25.3866 3.57183C25.3866 3.57183 25.1287 3.60835 24.9813 3.64488C24.6497 3.71794 24.1339 4.04671 23.876 4.26589C23.4707 4.63119 22.9917 5.17913 23.2128 5.72708C23.2496 5.76361 23.2865 5.87319 23.2865 5.87319ZM25.6077 6.4942C26.2709 6.45767 26.8973 6.27502 27.45 5.94625C28.0027 5.61749 28.8501 5.03301 28.7764 4.30242C28.7396 4.08324 28.5922 3.90059 28.408 3.82753C28.1501 3.71794 28.0395 3.75447 27.7079 3.82753C27.4868 3.90059 27.3763 3.93712 27.1552 4.04671C26.492 4.41201 25.5709 5.21566 25.0919 5.83667C24.9813 5.98278 24.8708 6.16543 24.7603 6.27502C24.6866 6.34808 24.6497 6.42114 24.6497 6.42114C24.6866 6.4942 25.3498 6.4942 25.6077 6.4942ZM23.9128 7.69968C23.8391 7.77274 23.7654 7.95539 23.6918 8.06498C23.6549 8.13803 23.5812 8.21109 23.5444 8.24762C23.3601 8.35721 23.2128 8.39374 23.0654 8.24762C22.8443 8.02845 22.6969 7.73621 22.6969 7.40744V7.00561C22.6601 6.82297 22.4759 6.60379 22.3653 6.42114C22.2548 6.20196 22.1442 5.83667 22.1442 5.58096C22.1074 4.81383 22.5127 4.11977 23.0285 3.57183C23.5444 3.02388 24.2444 2.54899 24.9813 2.25676C25.6814 1.96452 26.7131 1.74534 27.4868 2.03758C27.7448 2.11064 28.0764 2.32982 28.2606 2.54899C28.2974 2.58552 28.3343 2.65858 28.3711 2.65858C28.408 2.69511 28.4817 2.69511 28.5554 2.69511C28.8133 2.73164 29.1449 2.91429 29.2923 3.06041C29.587 3.31612 29.7344 3.5353 29.8081 3.90059C29.9555 4.59466 29.5502 5.36178 29.108 5.83667C28.3343 6.64032 27.5237 7.18826 26.5289 7.59009C26.0867 7.77274 25.3866 7.91886 24.9077 7.88233C24.7603 7.88233 24.576 7.8458 24.4287 7.80927C24.355 7.80927 24.0602 7.73621 24.0234 7.69968C23.9865 7.73621 23.9497 7.69968 23.9128 7.69968ZM24.834 9.23393C24.8708 9.23393 24.9077 9.27046 24.9445 9.27046C25.313 9.41657 25.4603 9.74534 25.534 10.0741C25.7551 10.9143 25.8288 12.7408 25.8656 13.4348C25.9025 13.9828 25.9025 14.4942 25.9393 15.0421C25.9762 15.4805 25.9762 16.1015 25.9025 16.5033C25.8656 16.6495 25.7551 16.8321 25.6077 16.9417C25.4235 17.0513 25.055 17.0513 24.834 17.0147C24.3181 16.9052 24.1339 16.5764 24.0602 16.065C23.876 14.8595 23.9865 12.4851 24.0602 11.4622C24.0971 11.1335 24.2076 10.0741 24.3918 9.63575C24.4655 9.52616 24.6129 9.1974 24.834 9.23393ZM8.87986 11.0604C8.87986 11.0604 8.1061 11.0969 7.59026 11.17C6.92705 11.2431 5.6743 11.4622 4.93739 11.7179C4.71631 11.791 4.27417 11.9737 4.23732 12.1928C4.20048 12.412 4.34786 12.5947 4.49524 12.7773C4.60578 12.8869 5.12162 13.3983 5.269 13.5079C5.89537 14.0193 7.14812 14.823 8.06926 15.1883C8.40087 15.3344 8.9167 15.517 8.9167 15.517C8.9167 15.517 8.87986 14.0193 8.87986 12.5581C8.84301 11.8275 8.87986 11.0604 8.87986 11.0604ZM22.918 11.6449C22.9548 12.0467 22.8443 12.8138 22.8443 12.8869C22.8075 13.1061 22.6232 13.654 22.6232 13.6905C22.4759 14.0193 22.3285 14.275 22.1811 14.5307C21.9232 14.9691 21.3336 15.6997 20.9652 15.9919C19.6387 17.1243 17.6122 17.7819 15.8437 17.9645C14.6646 18.1106 13.3013 18.0741 12.0117 17.8549C11.5696 17.7819 10.9432 17.6358 10.9432 17.6358C10.9432 17.6358 10.9432 17.8915 10.9064 18.0741C10.9064 18.1472 10.8327 18.3663 10.7958 18.4394C10.7221 18.6221 10.5379 18.7316 10.3537 18.7682C10.0958 18.8047 9.80099 18.8412 9.57992 18.7316C9.17462 18.549 9.02724 18.1837 8.95355 17.7819C8.87986 17.4531 8.84301 16.8321 8.84301 16.8321C8.84301 16.8321 8.54825 16.686 8.29033 16.5764C7.51657 16.2111 6.77966 15.7362 6.15329 15.2613C5.96906 15.1152 5.23215 14.4942 5.04792 14.3481C4.56893 13.9097 4.16363 13.4714 3.83202 12.8869C3.5741 12.4485 3.50041 12.0467 3.68464 11.5718C3.94256 10.9143 4.90054 10.4394 5.52692 10.1472C6.00591 9.92799 7.47973 9.4531 8.06926 9.38004C8.36402 9.34351 8.80617 9.27046 8.84301 9.23393C8.84301 9.23393 8.87986 9.23393 8.87986 9.1974C8.87986 9.16087 8.9167 8.53986 8.9167 8.28415C8.9167 8.06498 9.10093 6.53073 9.13778 6.20196C9.17462 6.01931 9.28516 5.36178 9.43254 5.17913C9.50623 5.06954 9.69046 5.06954 9.801 5.1426C10.5011 5.58096 10.7221 7.07867 10.759 7.8458C10.7958 8.32068 10.7958 9.01475 10.7958 9.01475C10.7958 9.01475 11.6064 8.97822 12.0854 9.01475C12.5644 9.01475 13.0802 9.08781 13.5961 9.1974C14.2225 9.30698 15.4752 9.56269 16.1753 9.92799C16.7648 10.2202 17.3175 10.7316 17.5017 11.2431C17.6491 11.7179 17.6491 12.0467 17.3912 12.4851C17.0964 12.96 16.5806 13.3253 16.0279 13.3618C15.8805 13.3618 15.2541 13.2887 15.0699 13.1426C14.9962 13.0695 14.9962 12.9965 15.0699 12.9234C15.1067 12.8869 15.3647 12.7408 15.5489 12.6677C15.6226 12.6312 15.6963 12.5581 15.77 12.5216C15.9173 12.412 16.0279 12.2659 16.0279 12.1198C15.991 11.9006 15.8068 11.791 15.5857 11.7179C14.6278 11.3526 12.6749 11.0239 11.717 10.9508C11.3485 10.9143 10.8327 10.9143 10.8327 10.9143L10.9432 16.065C10.9432 16.065 11.3854 16.138 11.717 16.2111C11.9012 16.2476 12.7486 16.3207 12.9697 16.3207C14.6646 16.3572 16.5069 16.2111 18.0544 15.4805C18.7176 15.1517 19.344 14.7864 19.823 14.2385C20.4493 13.5444 20.781 12.5581 20.6704 11.5718C20.5599 10.4759 19.7861 9.16087 19.1598 8.35721C17.5017 6.27502 14.7014 4.5216 12.196 3.5353C9.65361 2.51246 7.14812 1.89146 4.4584 1.8184C3.75833 1.78187 2.24767 1.8184 1.47391 2.03758C1.36337 2.07411 1.25284 2.11064 1.1423 2.11064C1.06861 2.11064 0.921227 2.1837 0.884382 2.22023C0.847536 2.22023 0.847536 2.25676 0.847536 2.25676C0.847536 2.25676 0.884382 2.29329 0.921227 2.29329C0.994918 2.32982 1.32653 2.36635 1.51076 2.36635C1.65814 2.40288 1.84236 2.47593 1.87921 2.58552C1.9529 2.69511 1.9529 2.76817 1.87921 2.87776C1.69498 3.09694 1.06861 3.06041 0.773845 3.02388C0.479081 2.98735 0.110626 2.87776 0.0369348 2.62205C-0.0367562 2.32982 0.110626 2.03758 0.258008 1.74534C0.589617 1.1974 1.03176 0.905158 1.69498 0.72251C2.61612 0.466802 3.83202 0.284154 4.71631 0.247624C6.70597 0.174565 8.62194 0.503332 10.5748 1.08781C11.6801 1.41657 13.1539 1.96452 14.2225 2.47593C14.9962 2.84123 16.2121 3.49877 16.8753 3.97365C17.0964 4.11977 18.3492 5.03301 18.5334 5.17913C18.9387 5.5079 19.4545 5.98278 19.8598 6.34808C20.5967 7.07867 21.5179 8.21109 21.96 9.08781C22.0706 9.30698 22.1442 9.52616 22.2916 9.74534C22.3285 9.8184 22.5495 10.3298 22.5864 10.4759C22.6232 10.6221 22.6601 10.8412 22.6601 10.8412C22.8443 11.0604 22.918 11.4988 22.918 11.6449ZM31.5767 12.0467H31.6504C32.2768 12.1198 32.8663 12.2294 33.3453 12.4485C33.7874 12.6312 34.0085 12.8869 34.2664 13.2887C34.598 13.9463 34.6349 14.823 34.3401 15.517C34.119 16.0284 33.6032 16.4303 33.1242 16.686C32.6452 16.9052 32.1662 17.0147 31.6135 17.0878C30.6556 17.1974 29.587 17.0147 28.7396 16.5764C28.2237 16.3207 27.5974 15.8823 27.2658 15.3344C27.0447 14.9326 27.0447 14.3846 27.3395 14.0193C27.7816 13.3983 28.7764 13.2887 29.4765 13.2887C30.0292 13.3252 31.024 13.4714 31.5767 13.654C31.7241 13.6905 32.2768 13.9097 32.3504 14.0193C32.4241 14.0924 32.461 14.1654 32.4241 14.275C32.3136 14.6403 31.3925 14.823 31.1345 14.8595C30.4345 14.9691 30.066 14.7134 29.2923 14.3846C29.108 14.3116 28.8501 14.2385 28.629 14.202C28.2606 14.1654 27.8553 14.275 27.7816 14.6403C27.7448 14.823 27.9658 15.0421 28.1501 15.1152C28.5554 15.2979 28.9238 15.3709 29.3291 15.3709C30.545 15.4074 31.9451 15.1883 32.94 14.4942C33.0874 14.3846 33.1979 14.2385 33.1979 14.0924C33.1979 14.0558 33.161 13.8732 33.0874 13.8367H33.0505C33.0137 13.8367 32.9768 13.7636 32.94 13.7271C32.8663 13.654 32.5715 13.5079 32.5347 13.5079C31.8715 13.2157 30.6187 13.1061 29.9555 13.033C29.2923 12.96 28.2237 12.8869 27.9658 12.8504C27.7079 12.8138 27.4131 12.7773 27.1921 12.6677C26.971 12.5581 26.7499 12.3389 26.6762 12.0832C26.5657 11.6084 26.7131 11.0604 26.971 10.6951C27.6342 9.74534 29.2186 9.38004 30.3976 9.23393C31.5398 9.08781 33.3821 9.08781 34.4875 9.67228C34.6717 9.74534 34.7454 9.85493 34.7086 10.0376C34.6349 10.3663 34.3769 10.5855 34.0453 10.6951C33.7137 10.8047 33.0137 10.8412 32.7189 10.8412C31.3556 10.9143 29.7344 10.8778 28.4448 11.2065C28.3343 11.2431 28.1869 11.2796 28.1132 11.3526C27.929 11.5718 28.4817 11.6449 28.5922 11.6449H28.6659L31.5767 12.0467ZM35.7771 17.0147C35.2244 16.8321 35.1139 15.9554 35.077 15.517C35.0033 14.0924 35.3718 12.0832 35.8508 10.7316C35.9982 10.3298 36.1824 9.70881 36.6245 9.74534C36.9193 9.78187 37.1404 10.001 37.2877 10.2202C37.7299 10.8047 38.2826 11.6084 38.651 12.1928C39.0563 12.8138 39.4616 13.4714 39.8669 14.0193C39.9038 14.0924 39.9775 14.1654 40.0143 14.202C40.088 14.275 40.1617 14.275 40.1617 14.202C40.1617 14.1654 40.1617 13.4714 40.1249 13.3252C40.088 13.1061 40.088 12.9234 40.0512 12.7042C39.9775 12.1198 39.7932 11.3161 39.6459 10.7682C39.4985 10.1472 39.2774 9.52616 39.13 8.90516C39.0932 8.72251 39.0563 8.50333 39.0563 8.32068C39.0563 8.06498 39.2406 7.91886 39.4985 7.99192C40.0512 8.17456 40.7881 9.38004 41.0091 9.78187C41.0828 9.92799 41.3776 10.6221 41.4513 10.8412C41.6724 11.5353 41.8197 12.1563 41.8934 12.9234C41.9671 13.654 41.8934 14.7134 41.5987 15.4074C41.4881 15.6631 41.2671 16.0284 41.046 16.2111C40.7512 16.5033 40.1249 16.7225 39.7196 16.4668C39.2774 16.2111 38.5036 14.9326 38.3931 14.7134C37.951 13.9463 37.2141 12.4851 37.1035 12.3389C37.0667 12.3024 37.0298 12.2659 36.993 12.2659C36.9561 12.2659 36.9193 12.3389 36.9193 12.412C36.8456 12.8504 36.8088 14.823 36.8088 14.896C36.8088 15.2248 36.7719 16.065 36.6982 16.4668C36.6245 16.7225 36.5877 16.9417 36.3298 17.0513C36.1087 17.1243 35.9982 17.0878 35.7771 17.0147ZM43.2567 16.9052C43.183 16.8686 43.1093 16.759 43.0356 16.686C43.0356 16.686 42.8146 16.3937 42.7777 16.2842C42.7409 16.2111 42.704 16.138 42.704 16.1015C42.5198 15.6266 42.5198 15.1883 42.6303 14.7134C42.7409 14.2385 42.8146 14.2385 43.0356 13.6175C43.0356 13.581 43.0725 13.5444 43.0725 13.5079C43.0725 13.4348 42.9251 12.8504 42.9251 12.6677C42.9251 12.3755 43.1462 12.1928 43.5146 12.1563H43.5883C43.7357 12.1198 43.8462 11.8275 43.9199 11.6084C44.0305 11.2796 44.2147 10.8047 44.2147 10.8047C44.2147 10.8047 43.7357 10.6951 43.4778 10.6221C43.183 10.5125 42.9988 10.3663 42.8514 10.1106C42.704 9.8184 42.8146 9.63575 43.1093 9.56269C43.2199 9.52616 44.141 9.34351 44.4358 9.30698C44.8042 9.27045 45.1358 9.1974 45.4674 9.16087C45.7622 9.12434 47.1255 8.97822 47.5676 8.97822C48.2309 9.01475 48.673 9.27046 49.0415 9.8184C49.2625 10.1106 49.3731 10.4759 49.0783 10.6586C48.5993 10.9508 47.0518 10.9873 46.757 10.9873H45.6885L45.3569 12.0467H47.0887C47.236 12.0467 47.3834 12.0467 47.494 12.0832C47.8256 12.1563 47.9361 12.412 47.9361 12.7408C47.9361 13.1426 47.8624 13.3618 47.5308 13.3983C47.3466 13.4348 45.4306 13.4348 45.1727 13.4714C45.0253 13.5079 44.8411 13.5079 44.8411 13.5079C44.8411 13.5079 44.6937 13.8732 44.5832 14.2385C44.4726 14.6038 44.3621 15.0056 44.3621 15.0056H44.5463C44.6937 15.0056 44.8042 15.0056 44.9148 14.9691C45.5043 14.8595 46.3886 14.7499 47.0887 14.6403C47.4571 14.5673 47.6782 14.5673 47.8624 14.823C48.0466 15.0421 48.1203 15.2248 48.1572 15.517C48.1572 15.7727 47.9729 15.9554 47.715 16.138C46.9781 16.7225 45.6517 17.3435 44.6937 17.4531C44.2515 17.4896 44.141 17.4531 43.7357 17.3435C43.662 17.307 43.4041 17.1974 43.4041 17.1974C43.4778 17.0513 43.3304 16.9417 43.2567 16.9052ZM55.4157 11.6084C54.9367 12.0102 54.2735 12.8504 53.9788 13.2887C53.5735 13.8732 53.205 14.5307 52.8366 15.0421C52.7629 15.1517 52.5049 15.5536 52.5418 15.5901C52.5418 15.6266 52.7997 15.6266 53.0576 15.5536C53.5735 15.4805 54.2735 15.1152 54.6788 14.7864C55.2684 14.3116 55.6737 13.6905 55.8579 12.96C55.9316 12.6312 55.9684 11.9371 55.7473 11.6084C55.6368 11.5718 55.4894 11.5353 55.4157 11.6084ZM51.4733 17.6358C51.4733 17.6358 51.3259 18.1106 51.2154 18.4394C51.0311 19.0604 50.589 20.7042 50.4784 21.2522C50.3311 22.0193 49.8889 24.0284 49.8889 24.065C49.8521 24.138 49.8521 24.138 49.7784 24.1746C49.5942 24.2842 49.5205 24.2476 49.2994 24.138C49.0046 23.9919 48.7836 23.8458 48.5625 23.5536C48.1572 23.0056 48.2309 21.9828 48.3414 21.3983C48.6362 19.2796 48.9309 18.3663 49.7415 16.2842V16.2111C49.4836 15.6631 49.3362 15.0421 49.3362 14.5307C49.3362 12.8869 50.2942 11.2796 51.3627 9.96452C51.4364 9.85493 51.9523 9.23393 52.2102 9.27046C52.4313 9.27046 52.5049 9.56269 52.4681 9.78187C52.3576 10.549 51.8049 11.3161 51.4364 11.9371C51.0311 12.6677 50.9206 12.96 50.7364 13.6175C50.6995 13.7271 50.6258 14.202 50.6258 14.275C50.6258 14.4577 50.6627 14.6768 50.6627 14.6768C50.6627 14.6768 51.3259 13.7271 51.768 13.1791C52.026 12.8504 52.1733 12.6677 52.3944 12.412C52.6155 12.1928 53.3892 11.3526 53.6103 11.17C54.0893 10.7316 54.3104 10.549 54.8262 10.2568C55.2315 10.0376 55.6 10.001 56.0053 10.2568C56.6316 10.6586 56.9264 11.5353 57.0001 12.2294C57.0738 13.0695 56.9264 14.0193 56.5211 14.7499C56.079 15.6266 55.4526 16.2476 54.642 16.759C53.7945 17.307 52.7997 17.7088 51.8417 17.6723C51.6207 17.6358 51.4733 17.6358 51.4733 17.6358Z" fill="black"/>
</svg>
