<svg width="43" height="25" viewBox="0 0 43 25" fill="none" xmlns="http://www.w3.org/2000/svg">
<path d="M40.431 5.88667C38.5537 2.36667 34.9264 0.190674 30.981 0.190674H1.07189C0.499166 0.190674 0.0537109 0.670674 0.0537109 1.24667C0.0537109 1.50267 0.149165 1.79067 0.340075 1.98267L6.8628 8.57467C7.43553 9.15067 8.23098 9.47067 9.02644 9.47067H30.1219C31.6173 9.47067 32.8583 10.6547 32.8583 12.1907C32.8583 13.6947 31.681 14.9427 30.1537 14.9427H15.6446C15.0719 14.9427 14.6264 15.4227 14.6264 15.9987C14.6264 16.2867 14.7219 16.5427 14.9128 16.7347L21.4355 23.3267C22.0083 23.8707 22.8037 24.1907 23.5992 24.1907H30.1855C38.7446 24.1907 45.2037 15.0067 40.431 5.88667Z" fill="#EB1700"/>
</svg>
