<svg width="60" height="25" viewBox="0 0 60 25" fill="none" xmlns="http://www.w3.org/2000/svg">
<g clip-path="url(#clip0_385_628)">
<path d="M37.9777 13.5042C35.2513 13.5933 33.5574 14.0844 33.5574 15.8768C33.5574 17.0372 34.4842 18.2952 36.8372 18.2952C39.9918 18.2952 41.6757 16.5789 41.6757 13.7639L41.6759 13.4543C40.5699 13.4543 39.206 13.4639 37.9777 13.5042ZM44.6827 17.2233C44.6827 18.0967 44.708 18.9588 44.7844 19.7351H41.9875C41.9129 19.0958 41.8857 18.4607 41.8857 17.8446C40.3736 19.6999 38.575 20.2333 36.08 20.2333C32.3794 20.2333 30.3979 18.2809 30.3979 16.0227C30.3979 12.7522 33.0929 11.599 37.7714 11.492C39.0508 11.4629 40.4878 11.4585 41.6759 11.4585L41.6757 11.139C41.6757 8.94943 40.2691 8.04918 37.8316 8.04918C36.0221 8.04918 34.6885 8.79661 34.5511 10.0882H31.392C31.7263 6.86791 35.1159 6.05347 38.0964 6.05347C41.6669 6.05347 44.6827 7.32146 44.6827 11.0909L44.6827 17.2233Z" fill="#FFBC13"/>
<path d="M11.9713 11.9071C11.8547 9.09975 9.82457 8.04918 7.65486 8.04918C5.31521 8.04918 3.44726 9.23092 3.12004 11.9071H11.9713ZM3.05523 13.9029C3.21749 16.6268 5.09941 18.2378 7.68708 18.2378C9.4799 18.2378 11.0747 17.5087 11.6086 15.9225H14.7097C14.1066 19.1409 10.6805 20.2333 7.73152 20.2333C2.36955 20.2333 -0.00683594 17.2858 -0.00683594 13.3109C-0.00683594 8.93526 2.4511 6.05347 7.78045 6.05347C12.0224 6.05347 15.1304 8.26926 15.1304 13.1056V13.9029H3.05523Z" fill="#F12C2D"/>
<path d="M22.843 18.1809C25.6373 18.1809 27.5494 16.1733 27.5494 13.1438C27.5494 10.1146 25.6373 8.10675 22.843 8.10675C20.0643 8.10675 18.1363 10.1146 18.1363 13.1438C18.1363 16.1733 20.0643 18.1809 22.843 18.1809ZM15.1302 0.776123H18.1363L18.136 8.31459C19.6094 6.5623 21.6394 6.05353 23.6374 6.05353C26.9875 6.05353 30.7085 8.30993 30.7085 13.1819C30.7085 17.2616 27.7492 20.2333 23.5816 20.2333C21.4002 20.2333 19.3468 19.4522 18.0804 17.9047C18.0804 18.5228 18.0459 19.1458 17.9781 19.7351H15.0278C15.0791 18.7823 15.1302 17.596 15.1302 16.6361L15.1302 0.776123Z" fill="#0968F6"/>
<path d="M59.9929 6.55273L50.6963 24.7761H47.3299L50.0027 19.7159L43.0063 6.55273H46.5239L51.6722 16.8373L56.806 6.55273H59.9929Z" fill="#93C822"/>
</g>
<defs>
<clipPath id="clip0_385_628">
<rect width="60" height="24" fill="white" transform="translate(-0.00683594 0.776123)"/>
</clipPath>
</defs>
</svg>
