<svg width="83" height="28" viewBox="0 0 83 28" fill="none" xmlns="http://www.w3.org/2000/svg">
<path fill-rule="evenodd" clip-rule="evenodd" d="M13.2566 8.55311H9.04955C7.55672 8.55311 6.84424 8.96053 6.84424 8.96053V0.0653076H0.262207V27.2263H6.81031V16.26C6.81031 15.2755 7.59065 14.4946 8.57456 14.4946H12.4084C13.3923 14.4946 14.1727 15.2755 14.1727 16.26V27.2263H20.7208V15.4113C20.7208 10.4544 17.3958 8.55311 13.2566 8.55311ZM76.3287 8.55311V19.5194C76.3287 20.5039 75.5484 21.2848 74.5645 21.2848H70.7306C69.7467 21.2848 68.9664 20.5039 68.9664 19.5194V8.55311H62.4183V20.0626C62.4183 24.7818 65.4379 27.2263 69.8824 27.2263H76.2948V27.1923C80.4001 27.1923 82.8429 24.2725 82.8429 20.0626V8.55311H76.3287ZM39.3133 19.4854C39.3133 20.47 38.533 21.2509 37.5491 21.2509H33.7491C32.7652 21.2509 31.9849 20.47 31.9849 19.4854V8.55311H25.4028V20.0626C25.4028 24.7818 28.4224 27.2263 32.867 27.2263H39.2794V27.1923C43.3847 27.1923 45.8275 24.2725 45.8275 20.0626V8.55311H39.2794C39.3133 8.55311 39.3133 19.4854 39.3133 19.4854ZM50.8828 27.2263H57.4309V0.0653076H50.8828V27.2263Z" fill="#040405"/>
</svg>
