<svg width="32" height="25" viewBox="0 0 32 25" fill="none" xmlns="http://www.w3.org/2000/svg">
<path d="M1.55938 18.2544C0.384647 19.037 0.776226 20.5044 3.25623 21.1892C5.80149 22.037 8.60781 22.2653 11.3162 21.8087C11.4794 21.8087 11.6099 21.7435 11.7078 21.7435V19.1022L9.06465 19.95C8.05307 20.2435 7.04149 20.3413 6.02991 20.1131C5.24675 19.8848 5.40991 19.4283 6.32359 19.037L11.7078 17.1783V14.3087L4.26781 16.8522C3.35412 17.1783 2.4078 17.6348 1.55938 18.2544ZM19.5394 6.64569V14.1457C22.7046 15.6783 25.1847 14.1457 25.1847 10.1348C25.1847 6.02612 23.7162 4.16743 19.4415 2.70004C17.1899 1.91743 14.8731 1.23264 12.5562 0.776123V23.1457L17.9731 24.7761V5.96091C17.9731 5.11308 17.9731 4.49351 18.5931 4.72178C19.4415 4.95004 19.5394 5.79786 19.5394 6.64569ZM29.5899 16.4935C27.3383 15.7109 24.9562 15.4174 22.6068 15.6457C21.3668 15.7109 20.192 16.037 19.1152 16.4283L18.8868 16.4935V19.5261L23.912 17.6674C24.9236 17.3739 25.9352 17.2761 26.9468 17.5044C27.7299 17.7326 27.5668 18.1892 26.6531 18.5805L18.9194 21.45V24.3848L29.5899 20.4392C30.3731 20.1457 31.0583 19.7544 31.6783 19.1348C32.2331 18.3522 32.0047 17.2435 29.5899 16.4935Z" fill="#0070D1"/>
</svg>
