<svg width="28" height="31" viewBox="0 0 28 31" fill="none" xmlns="http://www.w3.org/2000/svg">
<path d="M12.8292 14.8054L0.292236 28.4121C0.293414 28.4145 0.293414 28.4181 0.294591 28.4205C0.679636 29.898 1.99844 30.9854 3.56453 30.9854C4.19096 30.9854 4.77854 30.812 5.28251 30.5085L5.32255 30.4844L19.4338 22.1578L12.8292 14.8054Z" fill="#EA4335"/>
<path d="M25.5121 12.4887L25.5003 12.4803L19.4079 8.8691L12.5442 15.115L19.4326 22.1567L25.4921 18.5817C26.5542 17.994 27.276 16.8489 27.276 15.5292C27.276 14.2167 26.5648 13.0776 25.5121 12.4887Z" fill="#FBBC04"/>
<path d="M0.291909 2.58701C0.216549 2.87119 0.176514 3.16982 0.176514 3.47807V27.5223C0.176514 27.8305 0.216549 28.1291 0.293087 28.4121L13.2598 15.1534L0.291909 2.58701Z" fill="#4285F4"/>
<path d="M12.9217 15.5L19.4097 8.86642L5.31499 0.509718C4.80278 0.195438 4.2046 0.0148189 3.56522 0.0148189C1.99913 0.0148189 0.67797 1.10456 0.292925 2.58324C0.292925 2.58444 0.291748 2.58565 0.291748 2.58685L12.9217 15.5Z" fill="#34A853"/>
</svg>
