<svg width="25" height="25" viewBox="0 0 25 25" fill="none" xmlns="http://www.w3.org/2000/svg">
<g clip-path="url(#clip0_39_517)">
<path d="M19.099 10.9064C15.2892 8.64385 9.00504 8.43582 5.36812 9.53963C4.78406 9.7169 4.16642 9.38707 3.98951 8.80319C3.81248 8.21875 4.14184 7.60157 4.72633 7.42402C8.90127 6.15677 15.8415 6.4015 20.2274 9.00501C20.7527 9.31692 20.925 9.99536 20.6137 10.5198C20.3021 11.0451 19.6231 11.2182 19.099 10.9064ZM18.9743 14.2575C18.707 14.6912 18.1399 14.8273 17.7067 14.5609C14.5305 12.6085 9.68723 12.0429 5.92951 13.1836C5.44221 13.3309 4.92751 13.0561 4.77948 12.5697C4.63266 12.0824 4.90755 11.5687 5.39397 11.4205C9.68662 10.1179 15.0231 10.7488 18.6711 12.9906C19.1043 13.2574 19.2406 13.8248 18.9743 14.2575ZM17.5281 17.4758C17.3157 17.8241 16.8622 17.9332 16.5151 17.7209C13.7397 16.0247 10.2463 15.6416 6.13222 16.5813C5.73577 16.6722 5.34065 16.4237 5.25024 16.0273C5.15943 15.631 5.40693 15.2358 5.80425 15.1454C10.3064 14.1161 14.1684 14.5591 17.2836 16.4627C17.631 16.6749 17.7403 17.1286 17.5281 17.4758ZM12.1077 0.428524C5.58026 0.428524 0.288574 5.7201 0.288574 12.2474C0.288574 18.7755 5.58026 24.0667 12.1077 24.0667C18.6353 24.0667 23.9267 18.7755 23.9267 12.2474C23.9267 5.7201 18.6353 0.428524 12.1077 0.428524Z" fill="#1B1716"/>
</g>
<defs>
<clipPath id="clip0_39_517">
<rect width="24" height="24" fill="white" transform="translate(0.107422 0.247559)"/>
</clipPath>
</defs>
</svg>
