<svg width="25" height="25" viewBox="0 0 25 25" fill="none" xmlns="http://www.w3.org/2000/svg">
<g clip-path="url(#clip0_39_599)">
<path d="M12.0568 24.6757C18.6859 24.6757 24.0599 19.3128 24.0599 12.6973C24.0599 6.08188 18.6859 0.718994 12.0568 0.718994C5.42768 0.718994 0.0537109 6.08188 0.0537109 12.6973C0.0537109 19.3128 5.42768 24.6757 12.0568 24.6757Z" fill="white"/>
<path d="M13.2596 5.89765C13.1542 5.87909 12.6458 5.79247 12.0506 5.79247C11.4554 5.79247 10.947 5.87909 10.8416 5.89765C10.7796 5.91002 10.761 5.84815 10.8044 5.81722C10.8478 5.78628 12.0506 4.87058 12.0506 4.87058L13.2968 5.81722C13.3464 5.84815 13.3216 5.91002 13.2596 5.89765ZM11.1826 11.8249C11.1826 11.8249 11.1206 11.8497 11.102 11.9054C11.3562 12.0972 11.5298 12.5365 12.0506 12.5365C12.5776 12.5365 12.7512 12.0972 12.9992 11.9054C12.9806 11.8497 12.9186 11.8249 12.9186 11.8249C12.9186 11.8249 12.59 11.9054 12.0506 11.9054C11.5112 11.9054 11.1826 11.8249 11.1826 11.8249ZM12.0568 11.0887C11.908 11.0887 11.877 11.033 11.7778 11.033C11.6848 11.033 11.4988 11.1072 11.4616 11.1753C11.4616 11.2124 11.4802 11.2434 11.505 11.2681C11.7158 11.299 11.815 11.4166 12.063 11.4166C12.311 11.4166 12.404 11.299 12.621 11.2681C12.6458 11.2372 12.6582 11.2062 12.6644 11.1753C12.6272 11.1072 12.4412 11.033 12.3482 11.033C12.2304 11.033 12.1994 11.0887 12.0568 11.0887ZM24.0351 13.3532C24.0227 13.6378 23.9917 13.9224 23.9607 14.2008C22.6029 14.4236 22.1193 13.2171 20.7243 13.2789C20.8049 13.5759 20.8731 13.8729 20.9289 14.1823C22.0759 14.1823 22.5409 15.2526 23.8181 15.0918C23.7499 15.4197 23.6693 15.7414 23.5763 16.0632C22.5657 16.1622 22.2123 15.1598 21.0405 15.1908C21.0529 15.3578 21.0529 15.5249 21.0529 15.6919L21.0467 15.9703L23.3159 16.8365C23.1981 17.1583 23.0617 17.4738 22.9191 17.7832C22.2371 17.7461 22.0015 16.8737 20.9661 16.9417C20.9351 17.1645 20.8979 17.3872 20.8483 17.6038C21.7473 17.5419 21.9457 18.371 22.5905 18.4328C22.4231 18.7298 22.2495 19.0206 22.0635 19.3052C21.6791 19.1011 21.3505 18.4823 20.6251 18.4452C20.6995 18.2163 20.7677 17.9812 20.8173 17.7461C20.1726 17.7461 19.441 17.4986 18.821 16.9355C19.0194 15.7971 17.2524 14.6401 17.2524 13.811C17.2524 12.9077 17.7112 12.4065 17.7112 11.1877C17.7112 10.2843 17.271 9.30059 16.6076 8.63237C16.4774 8.50244 16.3472 8.39726 16.1984 8.30445C16.806 9.05929 17.2772 9.95024 17.2772 10.9835C17.2772 12.1281 16.744 12.7345 16.744 13.7925C16.744 14.8505 18.294 15.7662 18.294 16.8613C18.294 17.2882 18.1576 17.7089 17.705 18.5318C18.3994 19.2248 19.3108 19.6022 19.8936 19.6022C20.0858 19.6022 20.1849 19.5465 20.2531 19.398C20.3089 19.2681 20.3647 19.1382 20.4205 19.0082C21.0529 19.033 21.3381 19.6022 21.6915 19.8311C21.4993 20.0848 21.3009 20.3385 21.0901 20.5736C20.8545 20.3137 20.5445 19.8806 20.0795 19.7569C19.999 19.9178 19.9122 20.0724 19.8192 20.2271C20.2159 20.3323 20.4887 20.7345 20.6995 20.9943C20.4701 21.2294 20.2346 21.4522 19.9928 21.6687C19.8378 21.4336 19.6022 21.1304 19.3356 20.9634C19.2364 21.0995 19.131 21.2294 19.0256 21.3532C19.255 21.5079 19.4534 21.7863 19.5836 22.009C19.2984 22.2379 19.007 22.4483 18.7032 22.6525C18.5544 21.4336 16.8928 20.6045 17.3392 19.1939C17.1904 19.4413 17.0168 19.7507 17.0168 20.1281C17.0168 21.149 18.108 21.9595 18.1948 22.9742C17.9716 23.1103 17.736 23.2341 17.5004 23.3578C17.4632 22.2441 16.3038 21.0191 16.3038 20.1034C16.3038 19.0825 17.643 18.0554 17.643 16.8489C17.643 15.6424 16.093 14.8072 16.093 13.743C16.093 12.685 16.7502 12.0724 16.7502 10.7174C16.7502 9.72132 16.279 8.71899 15.5474 8.07553C15.4172 7.96416 15.2932 7.87135 15.1382 7.79092C15.8264 8.61381 16.2294 9.36865 16.2294 10.5009C16.2294 11.7755 15.473 12.487 15.473 13.7368C15.473 14.9866 16.992 15.6857 16.992 16.8489C16.992 18.0121 15.5784 18.9959 15.5784 20.1962C15.5784 21.2851 16.8246 22.3741 16.8432 23.6672C16.5704 23.7847 16.2914 23.8961 16.0124 23.9951C16.1736 22.6896 14.7662 21.3408 14.7662 20.2766C14.7662 19.1134 16.2356 18.1111 16.2356 16.8551C16.2356 15.5991 14.7414 15.0175 14.7414 13.7244C14.7414 12.4375 15.659 11.7198 15.659 10.2967C15.659 9.18922 15.1072 8.1869 14.3074 7.56818L14.2578 7.53106C14.1834 7.47537 14.1214 7.54343 14.171 7.61149C14.7414 8.31683 15.0452 9.03454 15.0452 10.0925C15.0452 11.398 13.9974 12.456 13.9974 13.7182C13.9974 15.2093 15.411 15.6362 15.411 16.8551C15.411 18.074 13.8982 19.0516 13.8982 20.3509C13.8982 21.5512 15.3304 22.8876 15.0824 24.2797C14.7972 24.354 14.5058 24.4158 14.2082 24.4715C14.4748 22.7453 13.0736 21.5017 13.0736 20.3694C13.0736 19.1444 14.6422 18.0554 14.6422 16.8551C14.6422 15.729 13.52 15.3578 13.3712 14.2008C13.3526 14.0461 13.2224 13.9286 13.0488 13.9533C12.8194 13.9966 12.528 14.1451 12.0692 14.1451C11.6104 14.1451 11.319 13.9966 11.0896 13.9533C10.916 13.9224 10.7858 14.04 10.7672 14.2008C10.6184 15.3578 9.49624 15.7229 9.49624 16.8551C9.49624 18.0492 11.0648 19.1444 11.0648 20.3694C11.0648 21.5017 9.65744 22.7453 9.93023 24.4715C9.63264 24.4158 9.34124 24.354 9.05604 24.2797C8.80804 22.8938 10.2402 21.5574 10.2402 20.3509C10.2402 19.0516 8.72744 18.074 8.72744 16.8551C8.72744 15.6301 10.141 15.2093 10.141 13.7182C10.141 12.456 9.08704 11.398 9.08704 10.0925C9.08704 9.03454 9.39084 8.31683 9.96124 7.61149C10.017 7.54343 9.95503 7.47537 9.87444 7.53106L9.82484 7.56818C9.02504 8.1869 8.47325 9.18303 8.47325 10.2967C8.47325 11.7198 9.39084 12.4375 9.39084 13.7244C9.39084 15.0113 7.89665 15.5991 7.89665 16.8551C7.89665 18.1111 9.36604 19.1134 9.36604 20.2766C9.36604 21.3408 7.96485 22.6896 8.11985 23.9951C7.83465 23.8961 7.56185 23.7909 7.28906 23.6672C7.30766 22.3741 8.55385 21.2851 8.55385 20.1962C8.55385 18.9959 7.14026 18.0183 7.14026 16.8489C7.14026 15.6796 8.65925 14.9866 8.65925 13.7368C8.65925 12.487 7.90285 11.7755 7.90285 10.5009C7.90285 9.36246 8.29965 8.61381 8.99404 7.79092C8.83904 7.87135 8.71505 7.95797 8.58485 8.07553C7.85325 8.71899 7.38206 9.7275 7.38206 10.7174C7.38206 12.0724 8.03925 12.685 8.03925 13.743C8.03925 14.801 6.48926 15.6362 6.48926 16.8489C6.48926 18.0554 7.82845 19.0825 7.82845 20.1034C7.82845 21.0191 6.67526 22.2379 6.63186 23.3578C6.39626 23.2403 6.16687 23.1103 5.93747 22.9742C6.02427 21.9595 7.11546 21.149 7.11546 20.1281C7.11546 19.7507 6.94186 19.4413 6.79306 19.1939C7.23946 20.6045 5.57787 21.4398 5.42907 22.6525C5.12527 22.4483 4.83388 22.2379 4.54868 22.009C4.67888 21.7863 4.87728 21.5079 5.10668 21.3532C5.00128 21.2294 4.89588 21.0995 4.79668 20.9634C4.53008 21.1243 4.28828 21.4274 4.13948 21.6687C3.89769 21.4522 3.66209 21.2294 3.43269 20.9943C3.64349 20.7345 3.91628 20.3323 4.31308 20.2271C4.22008 20.0724 4.13328 19.9178 4.05268 19.7569C3.59389 19.8806 3.27769 20.3137 3.04209 20.5736C2.83129 20.3323 2.6267 20.0848 2.4407 19.8311C2.78789 19.6022 3.07929 19.033 3.71169 19.0082C3.76749 19.1382 3.81709 19.2681 3.87909 19.398C3.94728 19.5465 4.04648 19.6022 4.23868 19.6022C4.82148 19.6022 5.73287 19.2248 6.42726 18.5318C5.97467 17.7089 5.83827 17.2882 5.83827 16.8613C5.83827 15.7724 7.38826 14.8567 7.38826 13.7925C7.38826 12.7283 6.85506 12.1281 6.85506 10.9835C6.85506 9.95024 7.32006 9.05929 7.93385 8.30445C7.78505 8.39726 7.64865 8.50244 7.52465 8.63237C6.86126 9.30059 6.42106 10.2843 6.42106 11.1877C6.42106 12.4065 6.87986 12.9077 6.87986 13.811C6.87986 14.6401 5.11287 15.7971 5.31127 16.9355C4.69748 17.4986 3.95968 17.7461 3.31489 17.7461C3.37069 17.9812 3.43889 18.2163 3.50709 18.4452C2.78169 18.4823 2.4531 19.1011 2.0687 19.3052C1.8827 19.0206 1.7029 18.7298 1.5417 18.4328C2.1865 18.3648 2.3787 17.5357 3.28389 17.6038C3.23429 17.3872 3.19709 17.1645 3.16609 16.9417C2.1307 16.8737 1.8951 17.7461 1.21311 17.7832C1.07051 17.4738 0.93411 17.1583 0.816311 16.8365L3.08549 15.9703L3.07929 15.6919C3.07929 15.5249 3.08549 15.3578 3.09169 15.1908C1.9261 15.166 1.5665 16.1622 0.555913 16.0632C0.462914 15.7476 0.382314 15.4197 0.314115 15.0918C1.5913 15.2465 2.0501 14.1761 3.20329 14.1823C3.25289 13.8729 3.32109 13.5759 3.40789 13.2789C2.0191 13.2171 1.5293 14.4236 0.171516 14.2008C0.134316 13.9224 0.109517 13.6378 0.0971167 13.3532C1.6781 13.5264 2.2671 12.2333 3.70549 12.3942C3.84189 12.0539 3.99688 11.7198 4.17668 11.398C2.3725 11.0825 1.7649 12.586 0.0847168 12.357C0.239716 5.89765 5.54067 0.718994 12.0568 0.718994C18.573 0.718994 23.8677 5.89765 24.0475 12.3509C22.3673 12.5798 21.7597 11.0763 19.9556 11.3918C20.1353 11.7136 20.2903 12.0415 20.4267 12.388C21.8651 12.2333 22.4603 13.5264 24.0351 13.3532ZM6.89846 8.3292C6.01187 7.97035 4.94548 8.05078 4.03408 8.63856C3.89148 7.79092 3.43269 7.03609 2.77549 6.58442C2.6825 6.52255 2.5895 6.57824 2.5957 6.68342C2.73209 8.47769 1.6843 10.0307 0.394714 11.398C1.7277 11.8002 2.85609 10.0864 4.58588 10.6865C5.19967 9.76463 5.98707 8.96648 6.89846 8.3292ZM12.0568 7.24645C10.9408 7.24645 10.0108 7.87754 9.76284 8.68806C9.74424 8.74993 9.76904 8.79324 9.84344 8.75612C10.0418 8.66331 10.2712 8.62619 10.5192 8.62619C10.9718 8.62619 11.3748 8.79324 11.6104 9.08404C11.7158 9.43052 11.722 9.92549 11.6042 10.2163C11.4182 10.173 11.35 10.0307 11.164 10.0307C10.978 10.0307 10.8416 10.1606 10.5316 10.1606C10.2216 10.1606 10.1844 10.0121 9.97983 10.0121C9.73804 10.0121 9.69464 10.2596 9.69464 10.538C9.69464 11.7755 10.8354 13.4831 12.0506 13.4831C13.2658 13.4831 14.4066 11.7816 14.4066 10.538C14.4066 10.2596 14.3508 10.0245 14.0966 9.98736C13.9726 10.0802 13.8548 10.1544 13.5696 10.1544C13.2596 10.1544 13.1728 10.0245 12.993 10.0245C12.7698 10.0245 12.7946 10.4885 12.5342 10.5133C12.3606 10.0925 12.3544 9.56045 12.497 9.07785C12.7326 8.78705 13.1356 8.62 13.5882 8.62C13.8362 8.62 14.0656 8.66331 14.264 8.74993C14.3384 8.78087 14.3632 8.74374 14.3446 8.68187C14.1028 7.87135 13.1666 7.24645 12.0568 7.24645ZM13.83 9.02217C13.5634 9.02217 13.2472 9.1026 13.055 9.32534C13.0364 9.38721 13.0364 9.47383 13.0612 9.52951C13.5448 9.36246 13.9726 9.35627 14.1772 9.5852C14.2888 9.4862 14.3198 9.3934 14.3198 9.2944C14.3198 9.13353 14.1586 9.02217 13.83 9.02217ZM9.93023 9.5852C10.1658 9.35009 10.6556 9.36246 11.1702 9.54807C11.195 9.2944 10.7362 9.01598 10.2836 9.01598C9.95504 9.01598 9.78764 9.12735 9.78764 9.28821C9.78764 9.39958 9.81864 9.4862 9.93023 9.5852ZM17.612 5.39649C16.7316 5.45836 15.969 5.76153 15.349 6.26269C15.6094 5.52023 15.9442 4.87058 16.3658 4.23949C15.2436 4.35705 14.3074 4.7654 13.6254 5.46455L13.0922 4.06625L14.2764 3.02062L12.6892 2.90925L12.0568 1.4367L11.4244 2.90925L9.83724 3.02062L11.0214 4.06625L10.4882 5.46455C9.80624 4.7654 8.87004 4.35705 7.74785 4.23949C8.16945 4.87058 8.50425 5.52023 8.76464 6.26269C8.14465 5.76153 7.38206 5.45836 6.50166 5.39649C7.02866 6.07089 7.49986 6.79479 7.84085 7.56818C7.87805 7.6548 7.96485 7.68574 8.05785 7.63624C9.26064 7.03609 10.6184 6.70198 12.0568 6.70198C13.4952 6.70198 14.853 7.03609 16.0558 7.63624C16.1488 7.67955 16.2294 7.6548 16.2666 7.56818C16.6138 6.79479 17.0788 6.07089 17.612 5.39649ZM19.5278 10.6865C21.2513 10.0925 22.3859 11.8002 23.7189 11.398C22.4293 10.0307 21.3753 8.47151 21.5179 6.68342C21.5241 6.57824 21.4311 6.51637 21.3381 6.58442C20.6809 7.03609 20.2221 7.79092 20.0795 8.63856C19.1682 8.05078 18.0956 7.97035 17.2152 8.3292C18.1204 8.96648 18.9078 9.76463 19.5278 10.6865Z" fill="black"/>
<path d="M21.0901 23.0794H20.4826V24.719H20.2656V23.0794H19.658V22.8752H21.0963V23.0794H21.0901ZM21.3505 22.8752H21.6729L22.2991 24.3169H22.3053L22.9377 22.8752H23.2539V24.719H23.0307V23.1722H23.0245L22.3611 24.719H22.2309L21.5675 23.1722V24.719H21.3505V22.8752Z" fill="black"/>
</g>
<defs>
<clipPath id="clip0_39_599">
<rect width="24" height="24" fill="white" transform="translate(0.0537109 0.718994)"/>
</clipPath>
</defs>
</svg>
