<svg width="26" height="25" viewBox="0 0 26 25" fill="none" xmlns="http://www.w3.org/2000/svg">
<g clip-path="url(#clip0_39_547)">
<path fill-rule="evenodd" clip-rule="evenodd" d="M12.6611 0.247559C5.76149 0.247559 0.161133 5.60972 0.161133 12.2259C0.161133 15.4259 1.46042 18.453 3.83497 20.7016C6.20952 22.9503 9.34572 24.2043 12.6611 24.2043C19.5608 24.2043 25.1611 18.8422 25.1611 12.1827C25.1611 5.60972 19.5608 0.247559 12.6611 0.247559ZM20.3672 15.2962C19.0679 18.28 16.0213 20.2259 12.6611 20.2259C8.04644 20.2259 4.3278 16.68 4.3278 12.2259C4.3278 8.98269 6.34393 6.0854 9.48013 4.83134C12.6163 3.57729 16.2006 4.26918 18.5751 6.56107C20.9497 8.89621 21.6665 12.3124 20.3672 15.2962ZM16.8278 12.2259C16.8278 14.4313 14.9461 16.2043 12.6611 16.2043C10.3762 16.2043 8.49447 14.4313 8.49447 12.2259C8.49447 10.0205 10.3762 8.24756 12.6611 8.24756C14.9461 8.24756 16.8278 10.0205 16.8278 12.2259Z" fill="#CC0000"/>
</g>
<defs>
<clipPath id="clip0_39_547">
<rect width="25" height="24" fill="white" transform="translate(0.161133 0.247559)"/>
</clipPath>
</defs>
</svg>
