<svg width="72" height="25" viewBox="0 0 72 25" fill="none" xmlns="http://www.w3.org/2000/svg">
<path d="M3.55841 15.3117V0.718994H0V15.4953C0 21.0479 3.92811 24.719 9.01155 24.719C11.5071 24.719 13.6791 23.7553 15.2965 22.1033V24.306H18.8087V0.718994H15.2503V15.3117C15.2503 19.0746 12.7086 21.5985 9.42747 21.5985C6.10013 21.5526 3.55841 19.1205 3.55841 15.3117ZM22.3209 24.3519H25.6945V22.1951C27.2657 23.8012 29.484 24.7649 31.887 24.7649C36.9705 24.7649 40.991 20.7725 40.991 15.7706C40.991 10.7687 36.9705 6.77636 31.887 6.77636C29.484 6.77636 27.3119 7.74003 25.7407 9.34614V0.718994H22.3209V24.3519ZM25.6945 15.7706C25.6945 12.4207 28.3748 9.80504 31.656 9.80504C34.9371 9.80504 37.6175 12.4207 37.6175 15.7706C37.6175 19.0746 34.9371 21.7362 31.656 21.7362C28.3286 21.7362 25.6945 19.0746 25.6945 15.7706ZM43.0244 15.7247C43.0244 20.8643 47.0449 24.719 52.2208 24.719C55.3633 24.719 57.9512 23.3423 59.7073 21.0479L57.2118 19.2123C55.9178 20.9102 54.208 21.7362 52.2208 21.7362C49.3094 21.7362 46.9525 19.6253 46.4904 16.8261H60.5854V15.7247C60.5854 10.5852 56.9345 6.77636 51.9435 6.77636C46.8601 6.77636 43.0244 10.8605 43.0244 15.7247ZM51.8511 9.75915C54.3928 9.75915 56.5186 11.5029 57.1194 14.1645H46.5366C47.1836 11.5029 49.3094 9.75915 51.8511 9.75915ZM72 10.1721V7.0058H70.7985C68.9037 7.0058 67.5173 7.87769 66.6393 9.25437V7.14347H63.3119V24.3519H66.7317V14.5316C66.7317 11.87 68.3492 10.1263 70.6136 10.1263H72V10.1721Z" fill="black"/>
</svg>
