<svg width="74" height="25" viewBox="0 0 74 25" fill="none" xmlns="http://www.w3.org/2000/svg">
<path d="M48.2143 0.247559C42.9668 0.247559 38.2554 2.98638 38.2554 8.01226C38.2554 13.8005 46.578 14.1958 46.578 17.0758C46.578 18.2899 45.1674 19.3911 42.7976 19.3911C39.4121 19.3911 36.873 17.8664 36.873 17.8664L35.801 22.9487C35.801 22.9487 38.7068 24.2476 42.6001 24.2476C48.3553 24.2476 52.8692 21.3958 52.8692 16.257C52.8692 10.1581 44.5185 9.76285 44.5185 7.0805C44.5185 6.1205 45.6752 5.07579 48.045 5.07579C50.7251 5.07579 52.9257 6.17697 52.9257 6.17697L53.9977 1.26403C53.9695 1.26403 51.5715 0.247559 48.2143 0.247559ZM0.14106 0.614617L0 1.34874C0 1.34874 2.20053 1.74403 4.20358 2.56285C6.77087 3.49462 6.94015 4.03109 7.39154 5.69697L12.1029 23.8523H18.4224L28.0991 0.614617H21.8079L15.573 16.4264L13.0339 3.01462C12.8082 1.48991 11.6233 0.614617 10.1563 0.614617H0.14106ZM30.6382 0.614617L25.7011 23.8523H31.7103L36.6191 0.614617H30.6382ZM64.0976 0.614617C62.6588 0.614617 61.8971 1.37697 61.3328 2.73226L52.5307 23.8523H58.822L60.0351 20.3229H67.7087L68.4422 23.8523H74L69.1758 0.614617H64.0976ZM64.9157 6.91109L66.7777 15.6358H61.7842L64.9157 6.91109Z" fill="#1434CB"/>
</svg>
