<svg width="22" height="25" viewBox="0 0 22 25" fill="none" xmlns="http://www.w3.org/2000/svg">
<g clip-path="url(#clip0_39_403)">
<path d="M14.9287 11.1821C15.4221 11.0791 19.7873 9.05129 20.1769 8.82325C21.0665 8.30257 21.3712 7.14937 20.8577 6.24753C20.3441 5.34569 19.2066 5.03669 18.3171 5.55737C17.9274 5.78545 14.0127 8.60425 13.678 8.98597C13.2945 9.42345 13.2282 10.0491 13.5119 10.5473C13.7956 11.0455 14.3632 11.3001 14.9287 11.1821Z" fill="#FFC220"/>
<path d="M20.1769 15.6718C19.7872 15.4437 15.422 13.416 14.9286 13.313C14.3632 13.195 13.7956 13.4496 13.5119 13.9478C13.2282 14.446 13.2945 15.0717 13.678 15.5091C14.0127 15.8908 17.9274 18.7096 18.3171 18.9377C19.2066 19.4584 20.3441 19.1494 20.8577 18.2476C21.3712 17.3457 21.0664 16.1925 20.1769 15.6718Z" fill="#FFC220"/>
<path d="M10.6071 15.6479C10.0397 15.6479 9.53841 16.019 9.35653 16.5745C9.1978 17.0592 8.74731 21.9058 8.74731 22.3619C8.74731 23.4033 9.58 24.2475 10.6071 24.2475C11.6343 24.2475 12.467 23.4033 12.467 22.3619C12.467 21.9058 12.0165 17.0592 11.8578 16.5745C11.6759 16.019 11.1746 15.6479 10.6071 15.6479Z" fill="#FFC220"/>
<path d="M6.28568 13.313C5.79231 13.416 1.42705 15.4438 1.03744 15.6718C0.147863 16.1925 -0.156921 17.3457 0.356655 18.2475C0.870231 19.1494 2.0077 19.4584 2.89723 18.9377C3.28688 18.7096 7.20161 15.8908 7.53626 15.5091C7.91984 15.0716 7.98612 14.4459 7.70241 13.9478C7.41869 13.4496 6.85114 13.195 6.28568 13.313Z" fill="#FFC220"/>
<path d="M2.89727 5.55737C2.00774 5.03669 0.870272 5.34569 0.356656 6.24753C-0.15692 7.14937 0.147864 8.30257 1.0374 8.82325C1.42705 9.05133 5.79231 11.0791 6.28564 11.1821C6.8511 11.3001 7.41873 11.0455 7.70245 10.5473C7.98616 10.0491 7.91984 9.42341 7.5363 8.98593C7.20165 8.60425 3.28688 5.78541 2.89727 5.55737Z" fill="#FFC220"/>
<path d="M10.6071 0.247559C9.57996 0.247559 8.74731 1.09176 8.74731 2.13312C8.74731 2.58924 9.1978 7.43584 9.35653 7.92052C9.53845 8.47604 10.0398 8.84708 10.6071 8.84708C11.1745 8.84708 11.6759 8.47604 11.8578 7.92052C12.0165 7.43584 12.467 2.58924 12.467 2.13312C12.467 1.09176 11.6343 0.247559 10.6071 0.247559Z" fill="#FFC220"/>
</g>
<defs>
<clipPath id="clip0_39_403">
<rect width="21" height="24" fill="white" transform="translate(0.107178 0.247559)"/>
</clipPath>
</defs>
</svg>
