<svg width="25" height="25" viewBox="0 0 25 25" fill="none" xmlns="http://www.w3.org/2000/svg">
<g clip-path="url(#clip0_39_625)">
<path d="M12.116 10.3499C15.7306 13.104 21.8805 19.8609 20.0132 21.7597C17.8891 23.6072 15.131 24.7191 12.116 24.7191C9.10104 24.7191 6.30875 23.6072 4.21882 21.7597C2.33445 19.8438 8.50147 13.0868 12.0818 10.367C12.0818 10.3499 12.116 10.3499 12.116 10.3499Z" fill="#107C10"/>
<path d="M18.3688 2.48093C16.5358 1.36903 14.5315 0.718994 12.1161 0.718994C9.70066 0.718994 7.67925 1.36903 5.84627 2.48093C5.81201 2.48093 5.81201 2.51515 5.81201 2.53225C5.81201 2.54936 5.84627 2.56646 5.8634 2.56646C8.19317 2.05328 11.7221 4.0547 12.0647 4.27708H12.1161C12.4416 4.07181 15.9705 2.07038 18.3174 2.56646C18.3516 2.56646 18.3688 2.56646 18.3688 2.53225C18.3688 2.49804 18.403 2.48093 18.3688 2.48093Z" fill="#107C10"/>
<path d="M3.70485 4.15732C3.67059 4.15732 3.67059 4.19153 3.65346 4.19153C1.46074 6.36402 0.107422 9.39182 0.107422 12.7104C0.107422 15.4303 1.03248 17.962 2.5571 19.9806C2.5571 20.0148 2.59136 20.0148 2.60849 20.0148C2.64275 20.0148 2.64275 19.9806 2.60849 19.9634C1.70057 17.0896 6.39436 10.2471 8.80978 7.39039L8.84404 7.35618C8.84404 7.32197 8.84404 7.32197 8.80978 7.32197C5.14382 3.67835 3.91042 4.07179 3.70485 4.15732Z" fill="#107C10"/>
<path d="M15.4049 7.28766L15.3706 7.32187C15.3706 7.32187 15.3706 7.35608 15.4049 7.35608C17.8374 10.2299 22.4969 17.0724 21.6062 19.912V19.9634C21.6404 19.9634 21.6575 19.9634 21.6575 19.9291C23.1822 17.9277 24.1072 15.3789 24.1072 12.659C24.1072 9.3404 22.7539 6.32971 20.5441 4.14012C20.5098 4.1059 20.5098 4.1059 20.4927 4.1059C20.3042 4.07169 19.088 3.67825 15.4049 7.28766Z" fill="#107C10"/>
</g>
<defs>
<clipPath id="clip0_39_625">
<rect width="24" height="24" fill="white" transform="translate(0.107422 0.718994)"/>
</clipPath>
</defs>
</svg>
